<mxfile host="app.diagrams.net" modified="2021-01-23T10:28:53.602Z" agent="5.0 (Linux; Android 10; SM-M215F) AppleWebKit/537.36 (KHTML, like Gecko) Chrome/84.0.4147.125 Mobile Safari/537.36" etag="yZsIcU7Xf1y5WmDUHqwZ" version="14.2.7" type="github">
  <diagram id="5WC3AGwH0yqWIWggGe8_" name="Page-1">
    <mxGraphModel dx="1961" dy="304" grid="1" gridSize="10" guides="1" tooltips="1" connect="1" arrows="1" fold="1" page="1" pageScale="1" pageWidth="850" pageHeight="1100" math="0" shadow="0">
      <root>
        <mxCell id="0" />
        <mxCell id="1" parent="0" />
        <mxCell id="QmIhrJ8lpSsO_5ZJsjQt-74" value="" style="edgeStyle=orthogonalEdgeStyle;rounded=0;orthogonalLoop=1;jettySize=auto;html=1;" edge="1" parent="1" target="QmIhrJ8lpSsO_5ZJsjQt-1">
          <mxGeometry relative="1" as="geometry">
            <mxPoint x="-100" y="240" as="sourcePoint" />
            <Array as="points">
              <mxPoint x="-50" y="240" />
              <mxPoint x="-50" y="240" />
            </Array>
          </mxGeometry>
        </mxCell>
        <mxCell id="QmIhrJ8lpSsO_5ZJsjQt-1" value="Lodge Complaint Request&amp;nbsp;" style="rounded=0;whiteSpace=wrap;html=1;" vertex="1" parent="1">
          <mxGeometry y="200" width="120" height="90" as="geometry" />
        </mxCell>
        <mxCell id="QmIhrJ8lpSsO_5ZJsjQt-2" value="Receive" style="rhombus;whiteSpace=wrap;html=1;" vertex="1" parent="1">
          <mxGeometry x="160" y="195" width="140" height="100" as="geometry" />
        </mxCell>
        <mxCell id="QmIhrJ8lpSsO_5ZJsjQt-10" value="" style="endArrow=none;html=1;exitX=1;exitY=0.5;exitDx=0;exitDy=0;" edge="1" parent="1" source="QmIhrJ8lpSsO_5ZJsjQt-1">
          <mxGeometry width="50" height="50" relative="1" as="geometry">
            <mxPoint x="150" y="260" as="sourcePoint" />
            <mxPoint x="160" y="245" as="targetPoint" />
            <Array as="points" />
          </mxGeometry>
        </mxCell>
        <mxCell id="QmIhrJ8lpSsO_5ZJsjQt-11" value="" style="endArrow=none;html=1;exitX=1;exitY=0.5;exitDx=0;exitDy=0;entryX=0;entryY=0.5;entryDx=0;entryDy=0;" edge="1" parent="1" source="QmIhrJ8lpSsO_5ZJsjQt-2" target="QmIhrJ8lpSsO_5ZJsjQt-20">
          <mxGeometry width="50" height="50" relative="1" as="geometry">
            <mxPoint x="390" y="250" as="sourcePoint" />
            <mxPoint x="430" y="245" as="targetPoint" />
            <Array as="points" />
          </mxGeometry>
        </mxCell>
        <mxCell id="QmIhrJ8lpSsO_5ZJsjQt-14" value="Files" style="rhombus;whiteSpace=wrap;html=1;" vertex="1" parent="1">
          <mxGeometry x="520" y="195" width="140" height="100" as="geometry" />
        </mxCell>
        <mxCell id="QmIhrJ8lpSsO_5ZJsjQt-17" value="" style="endArrow=none;html=1;" edge="1" parent="1">
          <mxGeometry width="50" height="50" relative="1" as="geometry">
            <mxPoint x="589.29" y="295" as="sourcePoint" />
            <mxPoint x="589" y="350" as="targetPoint" />
            <Array as="points" />
          </mxGeometry>
        </mxCell>
        <mxCell id="QmIhrJ8lpSsO_5ZJsjQt-18" value="" style="endArrow=none;html=1;entryX=1;entryY=0.5;entryDx=0;entryDy=0;" edge="1" parent="1" target="QmIhrJ8lpSsO_5ZJsjQt-20">
          <mxGeometry width="50" height="50" relative="1" as="geometry">
            <mxPoint x="520" y="245" as="sourcePoint" />
            <mxPoint x="470" y="250" as="targetPoint" />
            <Array as="points" />
          </mxGeometry>
        </mxCell>
        <mxCell id="QmIhrJ8lpSsO_5ZJsjQt-20" value="Police Station&amp;nbsp;" style="rounded=0;whiteSpace=wrap;html=1;" vertex="1" parent="1">
          <mxGeometry x="347.5" y="200" width="115" height="90" as="geometry" />
        </mxCell>
        <mxCell id="QmIhrJ8lpSsO_5ZJsjQt-28" value="" style="endArrow=none;html=1;entryX=1;entryY=0.5;entryDx=0;entryDy=0;" edge="1" parent="1">
          <mxGeometry width="50" height="50" relative="1" as="geometry">
            <mxPoint x="717.5" y="244.29000000000002" as="sourcePoint" />
            <mxPoint x="660" y="244.29000000000002" as="targetPoint" />
            <Array as="points" />
          </mxGeometry>
        </mxCell>
        <mxCell id="QmIhrJ8lpSsO_5ZJsjQt-29" value="FIR" style="rounded=0;whiteSpace=wrap;html=1;" vertex="1" parent="1">
          <mxGeometry x="720" y="195" width="150" height="90" as="geometry" />
        </mxCell>
        <mxCell id="QmIhrJ8lpSsO_5ZJsjQt-30" value="Complaint&amp;nbsp;" style="rounded=0;whiteSpace=wrap;html=1;" vertex="1" parent="1">
          <mxGeometry x="532.5" y="350" width="115" height="90" as="geometry" />
        </mxCell>
        <mxCell id="QmIhrJ8lpSsO_5ZJsjQt-38" value="Remarks" style="ellipse;whiteSpace=wrap;html=1;" vertex="1" parent="1">
          <mxGeometry x="950" y="320" width="120" height="40" as="geometry" />
        </mxCell>
        <mxCell id="QmIhrJ8lpSsO_5ZJsjQt-39" value="Assigned To&amp;nbsp;" style="ellipse;whiteSpace=wrap;html=1;" vertex="1" parent="1">
          <mxGeometry x="1060" y="295" width="120" height="40" as="geometry" />
        </mxCell>
        <mxCell id="QmIhrJ8lpSsO_5ZJsjQt-40" value="Status&amp;nbsp;" style="ellipse;whiteSpace=wrap;html=1;" vertex="1" parent="1">
          <mxGeometry x="1160" y="260" width="120" height="40" as="geometry" />
        </mxCell>
        <mxCell id="QmIhrJ8lpSsO_5ZJsjQt-41" value="Priority&amp;nbsp;" style="ellipse;whiteSpace=wrap;html=1;" vertex="1" parent="1">
          <mxGeometry x="1170" y="210" width="120" height="40" as="geometry" />
        </mxCell>
        <mxCell id="QmIhrJ8lpSsO_5ZJsjQt-42" value="Police Station ID" style="ellipse;whiteSpace=wrap;html=1;" vertex="1" parent="1">
          <mxGeometry x="1070" y="180" width="120" height="40" as="geometry" />
        </mxCell>
        <mxCell id="QmIhrJ8lpSsO_5ZJsjQt-43" value="Complaint Reference Id" style="ellipse;whiteSpace=wrap;html=1;" vertex="1" parent="1">
          <mxGeometry x="940" y="160" width="140" height="40" as="geometry" />
        </mxCell>
        <mxCell id="QmIhrJ8lpSsO_5ZJsjQt-44" value="FIR Date" style="ellipse;whiteSpace=wrap;html=1;" vertex="1" parent="1">
          <mxGeometry x="820" y="140" width="120" height="40" as="geometry" />
        </mxCell>
        <mxCell id="QmIhrJ8lpSsO_5ZJsjQt-45" value="FIR ID" style="ellipse;whiteSpace=wrap;html=1;movable=1;resizable=1;rotatable=1;deletable=1;editable=1;connectable=1;" vertex="1" parent="1">
          <mxGeometry x="690" y="140" width="120" height="40" as="geometry" />
        </mxCell>
        <mxCell id="QmIhrJ8lpSsO_5ZJsjQt-46" value="Action Taken&amp;nbsp;" style="ellipse;whiteSpace=wrap;html=1;" vertex="1" parent="1">
          <mxGeometry x="720" y="335" width="120" height="40" as="geometry" />
        </mxCell>
        <mxCell id="QmIhrJ8lpSsO_5ZJsjQt-47" value="FIR flag" style="ellipse;whiteSpace=wrap;html=1;" vertex="1" parent="1">
          <mxGeometry x="660" y="295" width="120" height="40" as="geometry" />
        </mxCell>
        <mxCell id="QmIhrJ8lpSsO_5ZJsjQt-51" value="" style="endArrow=none;html=1;exitX=0.5;exitY=1;exitDx=0;exitDy=0;" edge="1" parent="1" source="QmIhrJ8lpSsO_5ZJsjQt-45">
          <mxGeometry width="50" height="50" relative="1" as="geometry">
            <mxPoint x="790" y="250" as="sourcePoint" />
            <mxPoint x="820" y="190" as="targetPoint" />
          </mxGeometry>
        </mxCell>
        <mxCell id="QmIhrJ8lpSsO_5ZJsjQt-52" value="" style="endArrow=none;html=1;entryX=0.5;entryY=1;entryDx=0;entryDy=0;" edge="1" parent="1" target="QmIhrJ8lpSsO_5ZJsjQt-44">
          <mxGeometry width="50" height="50" relative="1" as="geometry">
            <mxPoint x="850" y="190" as="sourcePoint" />
            <mxPoint x="829.9999999999998" y="199.99999999999994" as="targetPoint" />
          </mxGeometry>
        </mxCell>
        <mxCell id="QmIhrJ8lpSsO_5ZJsjQt-53" value="" style="endArrow=none;html=1;" edge="1" parent="1">
          <mxGeometry width="50" height="50" relative="1" as="geometry">
            <mxPoint x="870" y="200" as="sourcePoint" />
            <mxPoint x="940" y="190" as="targetPoint" />
          </mxGeometry>
        </mxCell>
        <mxCell id="QmIhrJ8lpSsO_5ZJsjQt-55" value="" style="endArrow=none;html=1;exitX=1;exitY=0.25;exitDx=0;exitDy=0;" edge="1" parent="1" source="QmIhrJ8lpSsO_5ZJsjQt-29">
          <mxGeometry width="50" height="50" relative="1" as="geometry">
            <mxPoint x="890" y="214" as="sourcePoint" />
            <mxPoint x="1080" y="210" as="targetPoint" />
          </mxGeometry>
        </mxCell>
        <mxCell id="QmIhrJ8lpSsO_5ZJsjQt-58" value="" style="endArrow=none;html=1;entryX=0;entryY=0.5;entryDx=0;entryDy=0;" edge="1" parent="1" target="QmIhrJ8lpSsO_5ZJsjQt-41">
          <mxGeometry width="50" height="50" relative="1" as="geometry">
            <mxPoint x="869.9999999999998" y="220" as="sourcePoint" />
            <mxPoint x="1140" y="226" as="targetPoint" />
          </mxGeometry>
        </mxCell>
        <mxCell id="QmIhrJ8lpSsO_5ZJsjQt-59" value="" style="endArrow=none;html=1;entryX=0;entryY=0.5;entryDx=0;entryDy=0;" edge="1" parent="1" target="QmIhrJ8lpSsO_5ZJsjQt-40">
          <mxGeometry width="50" height="50" relative="1" as="geometry">
            <mxPoint x="870" y="240" as="sourcePoint" />
            <mxPoint x="1180.0000000000068" y="240" as="targetPoint" />
          </mxGeometry>
        </mxCell>
        <mxCell id="QmIhrJ8lpSsO_5ZJsjQt-60" value="" style="endArrow=none;html=1;" edge="1" parent="1">
          <mxGeometry width="50" height="50" relative="1" as="geometry">
            <mxPoint x="869.9999999999998" y="260" as="sourcePoint" />
            <mxPoint x="1080" y="300" as="targetPoint" />
          </mxGeometry>
        </mxCell>
        <mxCell id="QmIhrJ8lpSsO_5ZJsjQt-61" value="" style="endArrow=none;html=1;entryX=0.5;entryY=0;entryDx=0;entryDy=0;" edge="1" parent="1" target="QmIhrJ8lpSsO_5ZJsjQt-38">
          <mxGeometry width="50" height="50" relative="1" as="geometry">
            <mxPoint x="870" y="280" as="sourcePoint" />
            <mxPoint x="1090" y="310" as="targetPoint" />
          </mxGeometry>
        </mxCell>
        <mxCell id="QmIhrJ8lpSsO_5ZJsjQt-62" value="" style="endArrow=none;html=1;entryX=0.5;entryY=0;entryDx=0;entryDy=0;" edge="1" parent="1">
          <mxGeometry width="50" height="50" relative="1" as="geometry">
            <mxPoint x="860" y="290" as="sourcePoint" />
            <mxPoint x="899.9999999999998" y="335" as="targetPoint" />
          </mxGeometry>
        </mxCell>
        <mxCell id="QmIhrJ8lpSsO_5ZJsjQt-63" value="" style="endArrow=none;html=1;exitX=0.75;exitY=1;exitDx=0;exitDy=0;entryX=0.5;entryY=0;entryDx=0;entryDy=0;" edge="1" parent="1" source="QmIhrJ8lpSsO_5ZJsjQt-29" target="QmIhrJ8lpSsO_5ZJsjQt-46">
          <mxGeometry width="50" height="50" relative="1" as="geometry">
            <mxPoint x="869.9999999999998" y="300" as="sourcePoint" />
            <mxPoint x="790" y="330" as="targetPoint" />
          </mxGeometry>
        </mxCell>
        <mxCell id="QmIhrJ8lpSsO_5ZJsjQt-65" value="" style="endArrow=none;html=1;" edge="1" parent="1">
          <mxGeometry width="50" height="50" relative="1" as="geometry">
            <mxPoint x="820" y="290" as="sourcePoint" />
            <mxPoint x="770" y="310" as="targetPoint" />
          </mxGeometry>
        </mxCell>
        <mxCell id="QmIhrJ8lpSsO_5ZJsjQt-72" value="Accused" style="ellipse;shape=doubleEllipse;whiteSpace=wrap;html=1;" vertex="1" parent="1">
          <mxGeometry x="850" y="335" width="100" height="35" as="geometry" />
        </mxCell>
        <mxCell id="QmIhrJ8lpSsO_5ZJsjQt-76" value="" style="edgeStyle=orthogonalEdgeStyle;rounded=0;orthogonalLoop=1;jettySize=auto;html=1;entryX=0;entryY=0.5;entryDx=0;entryDy=0;exitX=1;exitY=0.444;exitDx=0;exitDy=0;exitPerimeter=0;" edge="1" parent="1" source="QmIhrJ8lpSsO_5ZJsjQt-75" target="QmIhrJ8lpSsO_5ZJsjQt-73">
          <mxGeometry relative="1" as="geometry">
            <mxPoint x="-260" y="240" as="sourcePoint" />
            <mxPoint x="-200" y="240" as="targetPoint" />
            <Array as="points" />
          </mxGeometry>
        </mxCell>
        <mxCell id="QmIhrJ8lpSsO_5ZJsjQt-73" value="Forward&amp;nbsp;" style="rhombus;whiteSpace=wrap;html=1;rounded=0;" vertex="1" parent="1">
          <mxGeometry x="-220" y="200" width="120" height="80" as="geometry" />
        </mxCell>
        <mxCell id="QmIhrJ8lpSsO_5ZJsjQt-80" value="" style="edgeStyle=orthogonalEdgeStyle;rounded=0;orthogonalLoop=1;jettySize=auto;html=1;" edge="1" parent="1" source="QmIhrJ8lpSsO_5ZJsjQt-79" target="QmIhrJ8lpSsO_5ZJsjQt-75">
          <mxGeometry relative="1" as="geometry" />
        </mxCell>
        <mxCell id="QmIhrJ8lpSsO_5ZJsjQt-75" value="Police Control Room&amp;nbsp;" style="whiteSpace=wrap;html=1;rounded=0;" vertex="1" parent="1">
          <mxGeometry x="-390" y="200" width="120" height="90" as="geometry" />
        </mxCell>
        <mxCell id="QmIhrJ8lpSsO_5ZJsjQt-82" value="" style="edgeStyle=orthogonalEdgeStyle;rounded=0;orthogonalLoop=1;jettySize=auto;html=1;" edge="1" parent="1" source="QmIhrJ8lpSsO_5ZJsjQt-81" target="QmIhrJ8lpSsO_5ZJsjQt-79">
          <mxGeometry relative="1" as="geometry" />
        </mxCell>
        <mxCell id="QmIhrJ8lpSsO_5ZJsjQt-79" value="Request&amp;nbsp;" style="rhombus;whiteSpace=wrap;html=1;rounded=0;" vertex="1" parent="1">
          <mxGeometry x="-630" y="205" width="140" height="80" as="geometry" />
        </mxCell>
        <mxCell id="QmIhrJ8lpSsO_5ZJsjQt-81" value="Lodge Complaint Request&amp;nbsp;" style="whiteSpace=wrap;html=1;rounded=0;" vertex="1" parent="1">
          <mxGeometry x="-840" y="200" width="120" height="90" as="geometry" />
        </mxCell>
      </root>
    </mxGraphModel>
  </diagram>
</mxfile>
